<?xml version="1.0" encoding="UTF-8" standalone="no"?>
<svg
   xmlns:dc="http://purl.org/dc/elements/1.1/"
   xmlns:cc="http://creativecommons.org/ns#"
   xmlns:rdf="http://www.w3.org/1999/02/22-rdf-syntax-ns#"
   xmlns:svg="http://www.w3.org/2000/svg"
   xmlns="http://www.w3.org/2000/svg"
   xmlns:sodipodi="http://sodipodi.sourceforge.net/DTD/sodipodi-0.dtd"
   xmlns:inkscape="http://www.inkscape.org/namespaces/inkscape"
   inkscape:version="1.0 (4035a4fb49, 2020-05-01)"
   sodipodi:docname="Drooom-logo4.svg"
   id="svg8"
   version="1.1"
   viewBox="0 0 158.75 40.407169"
   height="152.72"
   width="600">
  <defs
     id="defs2">
    <rect
       id="rect839"
       height="58.799297"
       width="186.01959"
       y="42.228584"
       x="118.13313" />
  </defs>
  <sodipodi:namedview
     lock-margins="true"
     fit-margin-bottom="1"
     fit-margin-right="1"
     fit-margin-left="1"
     fit-margin-top="1"
     inkscape:window-maximized="1"
     inkscape:window-y="-8"
     inkscape:window-x="-8"
     inkscape:window-height="1027"
     inkscape:window-width="1920"
     inkscape:object-paths="true"
     inkscape:guide-bbox="true"
     showguides="true"
     units="px"
     showgrid="false"
     inkscape:document-rotation="0"
     inkscape:current-layer="g1063"
     inkscape:document-units="mm"
     inkscape:cy="-106.6782"
     inkscape:cx="512.85204"
     inkscape:zoom="1"
     inkscape:pageshadow="2"
     inkscape:pageopacity="0"
     borderopacity="1.0"
     bordercolor="#666666"
     pagecolor="#505050"
     id="base" />
  <metadata
     id="metadata5">
    <rdf:RDF>
      <cc:Work
         rdf:about="">
        <dc:format>image/svg+xml</dc:format>
        <dc:type
           rdf:resource="http://purl.org/dc/dcmitype/StillImage" />
        <dc:title></dc:title>
      </cc:Work>
    </rdf:RDF>
  </metadata>
  <g
     transform="translate(-239.71462,-118.27882)"
     id="layer1"
     inkscape:groupmode="layer"
     inkscape:label="Layer 1">
    <g
       style="font-style:normal;font-variant:normal;font-weight:bold;font-stretch:normal;font-size:50.8px;line-height:1.25;font-family:sans-serif;-inkscape-font-specification:'sans-serif, Bold';font-variant-ligatures:normal;font-variant-caps:normal;font-variant-numeric:normal;font-variant-east-asian:normal;fill:#56cfe1;fill-opacity:1;stroke:none;stroke-width:0.264583"
       id="text835"
       aria-label="droom">
      <g
         id="g1063">
        <g
           id="g1072">
          <path
             sodipodi:nodetypes="sccsccsccscssssccs"
             id="path854"
             style="font-style:normal;font-variant:normal;font-weight:bold;font-stretch:normal;font-size:50.8px;font-family:Comfortaa;-inkscape-font-specification:'Comfortaa, Bold';font-variant-ligatures:normal;font-variant-caps:normal;font-variant-numeric:normal;font-variant-east-asian:normal;fill:#56cfe1;fill-opacity:1;stroke-width:0.206727"
             d="m 250.93408,149.70131 c -2.06396,0 -3.92947,-0.4763 -5.59651,-1.4289 -1.64059,-0.97906 -2.95041,-2.30211 -3.92947,-3.96916 -0.9526,-1.66705 -1.4289,-3.54578 -1.4289,-5.63621 0,-2.09042 0.43661,-3.95593 1.30982,-5.59651 0.89968,-1.66705 2.11689,-2.97687 3.65163,-3.92947 1.53474,-0.97906 3.26794,-1.46859 5.1996,-1.46859 1.5612,0 3.00333,0.33076 4.32639,0.99229 1.32305,0.63506 2.43441,1.50828 3.33409,2.61964 v -10.71673 c 0,-0.6086 0.18523,-1.09814 0.55568,-1.46859 0.39692,-0.37045 0.88645,-0.55568 1.46859,-0.55568 0.6086,0 1.09814,0.18523 1.46859,0.55568 0.37045,0.37045 0.55568,0.85999 0.55568,1.46859 v 18.09937 c 0,2.09043 -0.48952,3.96916 -1.46859,5.63621 -0.95259,1.66705 -2.24919,2.9901 -3.88977,3.96916 -1.64059,0.9526 -3.49286,1.4289 -5.55683,1.4289 z" />
          <path
             id="path856"
             style="font-style:normal;font-variant:normal;font-weight:bold;font-stretch:normal;font-size:50.8px;font-family:Comfortaa;-inkscape-font-specification:'Comfortaa, Bold';font-variant-ligatures:normal;font-variant-caps:normal;font-variant-numeric:normal;font-variant-east-asian:normal;fill:#56cfe1;fill-opacity:1;stroke-width:0.206727"
             d="m 270.94361,135.96801 q 0,-2.38149 1.15106,-4.247 1.19075,-1.90519 3.17533,-3.01656 1.98458,-1.11136 4.36607,-1.11136 2.3815,0 3.53256,0.79383 1.19074,0.75414 0.9129,1.82581 -0.11907,0.55568 -0.4763,0.87322 -0.31753,0.27784 -0.75414,0.35722 -0.4366,0.0794 -0.9526,-0.0397 -2.54026,-0.51599 -4.56453,-0.0794 -2.02427,0.4366 -3.21502,1.62735 -1.15106,1.19075 -1.15106,3.01656 z m 0.0397,13.57453 q -0.9526,0 -1.46859,-0.4763 -0.51599,-0.51599 -0.51599,-1.50828 v -17.74214 q 0,-0.9526 0.51599,-1.46859 0.51599,-0.51599 1.46859,-0.51599 0.99229,0 1.46859,0.51599 0.51599,0.4763 0.51599,1.46859 v 17.74214 q 0,0.9526 -0.51599,1.46859 -0.4763,0.51599 -1.46859,0.51599 z" />
          <path
             sodipodi:nodetypes="sccsccsccsccs"
             id="path858"
             style="font-style:normal;font-variant:normal;font-weight:bold;font-stretch:normal;font-size:50.8px;font-family:Comfortaa;-inkscape-font-specification:'Comfortaa, Bold';font-variant-ligatures:normal;font-variant-caps:normal;font-variant-numeric:normal;font-variant-east-asian:normal;fill:#5e60ce;fill-opacity:1;stroke-width:0.206727"
             d="m 323.41777,149.70131 c -2.14335,0 -4.03532,-0.46307 -5.6759,-1.38921 -1.64058,-0.9526 -2.93718,-2.24919 -3.88978,-3.88977 -0.92613,-1.66705 -1.3892,-3.57225 -1.3892,-5.7156 0,-2.16981 0.46307,-4.075 1.3892,-5.71559 0.9526,-1.66704 2.2492,-2.96364 3.88978,-3.88977 1.64058,-0.9526 3.53255,-1.4289 5.6759,-1.4289 2.11688,0 3.99562,0.4763 5.63621,1.4289 1.64058,0.92613 2.92395,2.22273 3.85008,3.88977 0.9526,1.64059 1.4289,3.54578 1.4289,5.71559 0,2.14335 -0.46307,4.04855 -1.3892,5.7156 -0.92614,1.64058 -2.20951,2.93717 -3.85009,3.88977 -1.64058,0.92614 -3.53255,1.38921 -5.6759,1.38921 z" />
          <path
             sodipodi:nodetypes="cccc"
             d="m 256.38063,138.84755 -8.19453,4.45353 v -9.17495 z"
             inkscape:transform-center-y="1.1718759"
             inkscape:transform-center-x="-0.11104192"
             style="font-style:normal;font-variant:normal;font-weight:bold;font-stretch:normal;font-size:50.8px;line-height:1.25;font-family:sans-serif;-inkscape-font-specification:'sans-serif, Bold';font-variant-ligatures:normal;font-variant-caps:normal;font-variant-numeric:normal;font-variant-east-asian:normal;opacity:1;fill:#5e60ce;fill-opacity:1;stroke:none;stroke-width:0.242212;stroke-miterlimit:4;stroke-dasharray:none;stroke-opacity:1"
             id="path917-8" />
          <path
             d="m 350.24061,149.70131 c -2.14334,0 -4.03531,-0.46307 -5.6759,-1.38921 -1.64058,-0.9526 -2.93717,-2.24919 -3.88977,-3.88977 -0.92614,-1.66705 -1.38921,-3.57225 -1.38921,-5.7156 0,-2.16981 0.46307,-4.075 1.38921,-5.71559 0.9526,-1.66704 2.24919,-2.96364 3.88977,-3.88977 1.64059,-0.9526 3.53256,-1.4289 5.6759,-1.4289 2.11689,0 3.99563,0.4763 5.63621,1.4289 1.64058,0.92613 2.92395,2.22273 3.85009,3.88977 0.9526,1.64059 1.42889,3.54578 1.42889,5.71559 0,2.14335 -0.46307,4.04855 -1.3892,5.7156 -0.92614,1.64058 -2.2095,2.93717 -3.85009,3.88977 -1.64058,0.92614 -3.53255,1.38921 -5.6759,1.38921 z"
             style="font-style:normal;font-variant:normal;font-weight:bold;font-stretch:normal;font-size:50.8px;font-family:Comfortaa;-inkscape-font-specification:'Comfortaa, Bold';font-variant-ligatures:normal;font-variant-caps:normal;font-variant-numeric:normal;font-variant-east-asian:normal;fill:#56cfe1;fill-opacity:1;stroke-width:0.206727"
             id="path1012"
             sodipodi:nodetypes="sccsccsccsccs" />
          <path
             d="m 395.7185,149.58223 q -0.87321,0 -1.46859,-0.55568 -0.55568,-0.59537 -0.55568,-1.46859 v -11.3518 q 0,-2.50057 -1.23044,-3.69132 -1.23044,-1.23044 -3.21502,-1.23044 -2.06396,0 -3.41348,1.4289 -1.30982,1.4289 -1.30982,3.65163 h -3.2944 q 0,-2.57995 1.11136,-4.52484 1.11137,-1.98458 3.09595,-3.09595 2.02427,-1.11136 4.60422,-1.11136 2.26242,0 4.00885,0.99229 1.74644,0.99229 2.69903,2.93718 0.99229,1.90519 0.99229,4.64391 v 11.3518 q 0,0.87322 -0.55568,1.46859 -0.55568,0.55568 -1.46859,0.55568 z m -26.4743,0 q -0.87321,0 -1.46859,-0.55568 -0.55568,-0.59537 -0.55568,-1.46859 V 129.8952 q 0,-0.91291 0.55568,-1.46859 0.59538,-0.55568 1.46859,-0.55568 0.91291,0 1.46859,0.55568 0.55568,0.55568 0.55568,1.46859 v 17.66276 q 0,0.87322 -0.55568,1.46859 -0.55568,0.55568 -1.46859,0.55568 z m 13.257,0 q -0.87322,0 -1.46859,-0.55568 -0.55568,-0.59537 -0.55568,-1.46859 v -11.3518 q 0,-2.50057 -1.23044,-3.69132 -1.23044,-1.23044 -3.21502,-1.23044 -2.06397,0 -3.41348,1.4289 -1.34952,1.4289 -1.34952,3.65163 h -2.50057 q 0,-2.57995 1.03199,-4.52484 1.03198,-1.98458 2.85779,-3.09595 1.82581,-1.11136 4.16762,-1.11136 2.26242,0 4.00885,0.99229 1.74643,0.99229 2.69903,2.93718 0.99229,1.90519 0.99229,4.64391 v 11.3518 q 0,0.87322 -0.55568,1.46859 -0.55568,0.55568 -1.46859,0.55568 z"
             style="font-style:normal;font-variant:normal;font-weight:bold;font-stretch:normal;font-size:50.8px;font-family:Comfortaa;-inkscape-font-specification:'Comfortaa, Bold';font-variant-ligatures:normal;font-variant-caps:normal;font-variant-numeric:normal;font-variant-east-asian:normal;fill:#56cfe1;fill-opacity:1;stroke-width:0.206727"
             id="path1014" />
          <path
             sodipodi:nodetypes="sccsccsccsccs"
             id="path1018"
             style="font-style:normal;font-variant:normal;font-weight:bold;font-stretch:normal;font-size:50.8px;line-height:1.25;font-family:Comfortaa;-inkscape-font-specification:'Comfortaa, Bold';font-variant-ligatures:normal;font-variant-caps:normal;font-variant-numeric:normal;font-variant-east-asian:normal;fill:#56cfe1;fill-opacity:1;stroke:none;stroke-width:0.206727"
             d="m 296.59493,149.70131 c -2.14335,0 -4.03532,-0.46307 -5.6759,-1.38921 -1.64059,-0.9526 -2.93718,-2.24919 -3.88978,-3.88977 -0.92613,-1.66705 -1.3892,-3.57225 -1.3892,-5.7156 0,-2.16981 0.46307,-4.075 1.3892,-5.71559 0.9526,-1.66704 2.24919,-2.96364 3.88978,-3.88977 1.64058,-0.9526 3.53255,-1.4289 5.6759,-1.4289 2.11688,0 3.99562,0.4763 5.63621,1.4289 1.64058,0.92613 2.92395,2.22273 3.85008,3.88977 0.9526,1.64059 1.4289,3.54578 1.4289,5.71559 0,2.14335 -0.46307,4.04855 -1.38921,5.7156 -0.92613,1.64058 -2.2095,2.93717 -3.85008,3.88977 -1.64059,0.92614 -3.53256,1.38921 -5.6759,1.38921 z" />
        </g>
      </g>
    </g>
    <text
       style="font-style:normal;font-weight:normal;font-size:10.5833px;line-height:1.25;font-family:sans-serif;white-space:pre;shape-inside:url(#rect839);fill:#000000;fill-opacity:1;stroke:none;"
       id="text837"
       xml:space="preserve" />
  </g>
</svg>
